<svg xmlns="http://www.w3.org/2000/svg" viewBox="0 0 333334 199332" shape-rendering="geometricPrecision" text-rendering="geometricPrecision" image-rendering="optimizeQuality" fill-rule="evenodd" clip-rule="evenodd">
  <path d="M93937 72053c0 4093 443 7405 1219 9936 887 2531 1996 4728 3437 6660 1108 1219 1552 2420 1552 3437 0 1552-998 3104-2993 4646l-9936 6660c-443 332-887 443-1441 443-554 0-1108-222-1663-554-2087-1774-3880-3659-5439-5770-1552-2198-3104-4839-4756-7993-11820 13926-26745 20918-44769 20918-12820 0-23089-3659-30494-10980-7405-7309-11155-17129-11155-29275 0-12931 4535-23422 13714-31378 9180-7956 21407-11820 36781-11820 5107 0 10323 443 15652 1219 5328 776 10877 2087 16648 3769v-10545c0-10980-2309-18603-6770-22925-4535-4313-12265-6549-23089-6549-5107 0-10323 665-15652 1885-5328 1219-10435 2750-15430 4535-2198 887-3769 1441-4646 1663-887 222-1552 332-1996 332-1774 0-2642-1219-2642-3769v-5991c0-1996 222-3437 776-4313 554-887 1663-1774 3326-2642 4202-2198 9291-3989 15320-5439C30272 675 36672 0 43744 0c13373 0 23200 3104 29496 9180 6217 6217 9291 15541 9291 28032v34841h11406zm-50097 26635c4978 0 10102-887 15541-2750 5439-1885 10213-5217 14382-9846 2420-2750 4202-5770 5217-9180 998-3326 1552-7309 1552-12043v-5770c-4202-998-8625-1885-13373-2531-4756-665-9401-998-14049-998-10102 0-17574 1996-22483 5991-4978 3989-7405 9624-7405 16979 0 6882 1774 12154 5328 15764 3437 3659 8736 5439 15289 5439v-55zm115430 13150c-2198 0-3659-443-4646-1219-998-887-1885-2750-2642-5660l-29496-97048c-776-2993-1108-4978-1108-5991 0-2420 1219-3659 3659-3659h14936c2309 0 3880 443 4756 1219 998 887 1774 2750 2531 5660l21075 82936 19634-82936c665-2993 1441-4756 2420-5660 998-776 2642-1219 4867-1219h12265c2309 0 3880 443 4867 1219 998 887 1885 2750 2420 5660l19855 83936 21628-83936c776-2993 1663-4756 2531-5660 998-776 2531-1219 4756-1219h14160c2420 0 3659 1219 3659 3659 0 776-111 1552-222 2420-111 887-332 2198-776 3880l-30272 97048c-776 2993-1663 4756-2642 5660-998 776-2531 1219-4646 1219h-13150c-2309 0-3880-443-4867-1330-998-887-1885-2750-2420-5770l-19412-80739-19302 80628c-665 2993-1441 4978-2420 5770-998 887-2642 1330-4867 1330h-13150zm177058 3326c-5991 0-11931-665-17796-1996-5770-1330-10324-2750-13262-4313-1885-998-3104-2087-3659-3104-554-998-887-2087-887-3104v-6217c0-2531 998-3769 2993-3769 776 0 1552 111 2309 332 776 222 1885 776 3215 1330 4313 1885 8958 3326 13926 4313 5107 998 10102 1552 15098 1552 8070 0 14382-1441 18714-4313 4313-2882 6549-7087 6549-12598 0-3659-1108-6770-3437-9291-2309-2531-6660-4756-12931-6770l-18492-5770c-9401-2993-16316-7405-20697-13150-4313-5660-6549-11931-6549-18714 0-5439 1108-10213 3437-14382 2309-4202 5439-7956 9291-10877 3880-3104 8292-5439 13373-7087s10435-2420 16205-2420c2882 0 5770 111 8625 443 2882 332 5550 776 8180 1219 2642 554 5107 1108 7405 1774 2309 665 4093 1330 5439 1996 1774 887 3104 1774 3880 2750 776 887 1219 2198 1219 3880v5770c0 2531-998 3880-2993 3880-1108 0-2750-554-4978-1552-7405-3437-15764-5107-25054-5107-7309 0-13039 1219-16979 3659s-5991 6217-5991 11377c0 3659 1219 6770 3659 9291 2420 2531 7087 4978 13926 7087l18161 5770c9291 2993 15985 7087 20032 12376 3989 5328 5991 11488 5991 18603 0 5549-1108 10545-3326 14936-2309 4424-5439 8292-9513 11488-4093 3215-8958 5770-14604 7530-5770 1663-12043 2531-18824 2531l-222-222z" fill="#f90"/>
  <path d="M301908 196531c-36339 26856-89197 41127-134510 41127-63639 0-120907-23532-164100-62619-3437-3104-332-7309 3769-4978 46414 26967 103778 43325 163102 43325 39997 0 83980-8292 124408-25385 6106-2750 11266 3989 7309 8514v16zm15764-17796c-4646-5991-30716-2862-42535-1441-3547 443-4093-2642-887-4978 20697-14604 54707-10324 58698-5549 3989 4978-1108 39001-20476 55319-2993 2531-5770 1219-4424-2087 4313-10767 13926-34841 9624-41238v-26z" fill="#f90"/>
</svg>