<svg xmlns="http://www.w3.org/2000/svg" viewBox="0 0 128 128">
  <path fill-rule="evenodd" clip-rule="evenodd" fill="#3A4D54" d="M73.8 50.8h11.3v11.5h5.7c2.6 0 5.3-.5 7.8-1.3 1.2-.4 2.6-1 3.8-1.7-1.6-2.1-2.4-4.7-2.6-7.3-.3-3.5.4-8.1 2.8-10.8l1.2-1.4 1.4 1.1c3.6 2.9 6.5 6.8 7.1 11.4 4.3-1.3 9.3-1 13.1 1.2l1.5.9-.8 1.6c-3.2 6.2-9.9 8.2-16.4 7.8-9.8 24.3-31 35.8-56.8 35.8-13.3 0-25.5-5-32.5-16.8l-.1-.2-1-2.1c-2.4-5.2-3.1-10.9-2.6-16.6l.2-1.7h9.6v-11.4h11.3v-11.2h22.5v-11.3h13.5v22.5z"/>
  <path fill="#00AADA" d="M110.4 55.1c.8-5.9-3.6-10.5-6.4-12.7-3.1 3.6-3.6 13.2 1.3 17.2-2.4 2.1-7.4 4.1-12.5 4.1h-54.5c-.5 5.9 1 10.8 3.1 15 2.1 4.3 5.3 7.5 9.1 9.5.1 0 .2.1.3.1 5.5 2.5 11.8 3.9 18.2 3.9 16.5 0 31.2-7.3 39.2-22.9 4.7.4 14.3-1.4 17.2-9.2z"/>
  <path fill="#28B8EB" d="M110.4 55.1c.8-5.9-3.6-10.5-6.4-12.7-3.1 3.6-3.6 13.2 1.3 17.2-2.4 2.1-7.4 4.1-12.5 4.1h-49.6c-.3 9.5 3.2 16.7 9.5 21 5.5 2.5 11.8 3.9 18.2 3.9 16.5 0 31.2-7.3 39.2-22.9 4.7.4 14.3-1.4 17.2-9.2z"/>
  <path fill="#3A4D54" d="M45.3 56.2h2.9v2.9h-2.9zM45.3 59.1h2.9v2.9h-2.9zM45.3 62h2.9v2.9h-2.9zM48.2 62h2.9v2.9h-2.9zM51.1 62h2.9v2.9h-2.9zM51.1 59.1h2.9v2.9h-2.9zM51.1 56.2h2.9v2.9h-2.9zM48.2 56.2h2.9v2.9h-2.9zM48.2 59.1h2.9v2.9h-2.9zM57 56.2h2.9v2.9h-2.9zM59.9 56.2h2.9v2.9h-2.9zM59.9 59.1h2.9v2.9h-2.9zM59.9 62h2.9v2.9h-2.9zM57 62h2.9v2.9h-2.9zM54.1 62h2.9v2.9h-2.9zM54.1 59.1h2.9v2.9h-2.9zM54.1 56.2h2.9v2.9h-2.9zM57 59.1h2.9v2.9h-2.9zM65.8 56.2h2.9v2.9h-2.9zM65.8 59.1h2.9v2.9h-2.9zM65.8 62h2.9v2.9h-2.9zM68.7 62h2.9v2.9h-2.9zM71.6 62h2.9v2.9h-2.9zM71.6 59.1h2.9v2.9h-2.9zM71.6 56.2h2.9v2.9h-2.9zM68.7 56.2h2.9v2.9h-2.9zM68.7 59.1h2.9v2.9h-2.9zM77.5 56.2h2.9v2.9h-2.9zM77.5 59.1h2.9v2.9h-2.9zM77.5 62h2.9v2.9h-2.9zM80.4 62h2.9v2.9h-2.9zM83.3 62h2.9v2.9h-2.9zM83.3 59.1h2.9v2.9h-2.9zM83.3 56.2h2.9v2.9h-2.9zM80.4 56.2h2.9v2.9h-2.9zM80.4 59.1h2.9v2.9h-2.9z"/>
  <path fill="#00AADA" d="M38.5 67.8h3.3v3.3h-3.3z"/>
  <path fill="#00AADA" d="M38.5 70.7h3.3v3.3h-3.3z"/>
  <path fill="#00AADA" d="M38.5 73.6h3.3v3.3h-3.3z"/>
  <path fill="#00AADA" d="M41.4 73.6h3.3v3.3h-3.3z"/>
  <path fill="#00AADA" d="M44.3 73.6h3.3v3.3h-3.3z"/>
  <path fill="#00AADA" d="M44.3 70.7h3.3v3.3h-3.3z"/>
  <path fill="#00AADA" d="M44.3 67.8h3.3v3.3h-3.3z"/>
  <path fill="#00AADA" d="M41.4 67.8h3.3v3.3h-3.3z"/>
  <path fill="#00AADA" d="M41.4 70.7h3.3v3.3h-3.3z"/>
  <path fill="#28B8EB" d="M41.4 70.7h3.3v3.3h-3.3z"/>
  <path fill="#00AADA" d="M49.5 67.8h3.3v3.3h-3.3z"/>
  <path fill="#00AADA" d="M52.4 67.8h3.3v3.3h-3.3z"/>
  <path fill="#00AADA" d="M52.4 70.7h3.3v3.3h-3.3z"/>
  <path fill="#00AADA" d="M52.4 73.6h3.3v3.3h-3.3z"/>
  <path fill="#00AADA" d="M49.5 73.6h3.3v3.3h-3.3z"/>
  <path fill="#00AADA" d="M46.6 73.6h3.3v3.3h-3.3z"/>
  <path fill="#00AADA" d="M46.6 70.7h3.3v3.3h-3.3z"/>
  <path fill="#00AADA" d="M46.6 67.8h3.3v3.3h-3.3z"/>
  <path fill="#00AADA" d="M49.5 70.7h3.3v3.3h-3.3z"/>
  <path fill="#00AADA" d="M57.6 67.8h3.3v3.3h-3.3z"/>
  <path fill="#00AADA" d="M57.6 70.7h3.3v3.3h-3.3z"/>
  <path fill="#00AADA" d="M57.6 73.6h3.3v3.3h-3.3z"/>
  <path fill="#00AADA" d="M60.5 73.6h3.3v3.3h-3.3z"/>
  <path fill="#00AADA" d="M63.4 73.6h3.3v3.3h-3.3z"/>
  <path fill="#00AADA" d="M63.4 70.7h3.3v3.3h-3.3z"/>
  <path fill="#00AADA" d="M63.4 67.8h3.3v3.3h-3.3z"/>
  <path fill="#00AADA" d="M60.5 67.8h3.3v3.3h-3.3z"/>
  <path fill="#00AADA" d="M60.5 70.7h3.3v3.3h-3.3z"/>
  <path fill="#00AADA" d="M68.6 67.8h3.3v3.3h-3.3z"/>
  <path fill="#00AADA" d="M68.6 70.7h3.3v3.3h-3.3z"/>
  <path fill="#00AADA" d="M68.6 73.6h3.3v3.3h-3.3z"/>
  <path fill="#00AADA" d="M71.5 73.6h3.3v3.3h-3.3z"/>
  <path fill="#00AADA" d="M74.4 73.6h3.3v3.3h-3.3z"/>
  <path fill="#00AADA" d="M74.4 70.7h3.3v3.3h-3.3z"/>
  <path fill="#00AADA" d="M74.4 67.8h3.3v3.3h-3.3z"/>
  <path fill="#00AADA" d="M71.5 67.8h3.3v3.3h-3.3z"/>
  <path fill="#00AADA" d="M71.5 70.7h3.3v3.3h-3.3z"/>
  <path fill="#00AADA" d="M79.7 67.8h3.3v3.3h-3.3z"/>
  <path fill="#00AADA" d="M79.7 70.7h3.3v3.3h-3.3z"/>
  <path fill="#00AADA" d="M79.7 73.6h3.3v3.3h-3.3z"/>
  <path fill="#00AADA" d="M82.6 73.6h3.3v3.3h-3.3z"/>
  <path fill="#00AADA" d="M85.5 73.6h3.3v3.3h-3.3z"/>
  <path fill="#00AADA" d="M85.5 70.7h3.3v3.3h-3.3z"/>
  <path fill="#00AADA" d="M85.5 67.8h3.3v3.3h-3.3z"/>
  <path fill="#00AADA" d="M82.6 67.8h3.3v3.3h-3.3z"/>
  <path fill="#00AADA" d="M82.6 70.7h3.3v3.3h-3.3z"/>
  <path fill="#FFFFFF" d="M38.5 67.8h3.3v3.3h-3.3z"/>
  <path fill="#FFFFFF" d="M38.5 70.7h3.3v3.3h-3.3z"/>
  <path fill="#FFFFFF" d="M38.5 73.6h3.3v3.3h-3.3z"/>
  <path fill="#FFFFFF" d="M41.4 73.6h3.3v3.3h-3.3z"/>
  <path fill="#FFFFFF" d="M44.3 73.6h3.3v3.3h-3.3z"/>
  <path fill="#FFFFFF" d="M44.3 70.7h3.3v3.3h-3.3z"/>
  <path fill="#FFFFFF" d="M44.3 67.8h3.3v3.3h-3.3z"/>
  <path fill="#FFFFFF" d="M41.4 67.8h3.3v3.3h-3.3z"/>
  <path fill="#FFFFFF" d="M41.4 70.7h3.3v3.3h-3.3z"/>
  <path fill="#E6E6E6" d="M41.4 70.7h3.3v3.3h-3.3z"/>
  <path fill="#FFFFFF" d="M49.5 67.8h3.3v3.3h-3.3z"/>
  <path fill="#FFFFFF" d="M52.4 67.8h3.3v3.3h-3.3z"/>
  <path fill="#FFFFFF" d="M52.4 70.7h3.3v3.3h-3.3z"/>
  <path fill="#FFFFFF" d="M52.4 73.6h3.3v3.3h-3.3z"/>
  <path fill="#FFFFFF" d="M49.5 73.6h3.3v3.3h-3.3z"/>
  <path fill="#FFFFFF" d="M46.6 73.6h3.3v3.3h-3.3z"/>
  <path fill="#FFFFFF" d="M46.6 70.7h3.3v3.3h-3.3z"/>
  <path fill="#FFFFFF" d="M46.6 67.8h3.3v3.3h-3.3z"/>
  <path fill="#FFFFFF" d="M49.5 70.7h3.3v3.3h-3.3z"/>
  <path fill="#FFFFFF" d="M57.6 67.8h3.3v3.3h-3.3z"/>
  <path fill="#FFFFFF" d="M57.6 70.7h3.3v3.3h-3.3z"/>
  <path fill="#FFFFFF" d="M57.6 73.6h3.3v3.3h-3.3z"/>
  <path fill="#FFFFFF" d="M60.5 73.6h3.3v3.3h-3.3z"/>
  <path fill="#FFFFFF" d="M63.4 73.6h3.3v3.3h-3.3z"/>
  <path fill="#FFFFFF" d="M63.4 70.7h3.3v3.3h-3.3z"/>
  <path fill="#FFFFFF" d="M63.4 67.8h3.3v3.3h-3.3z"/>
  <path fill="#FFFFFF" d="M60.5 67.8h3.3v3.3h-3.3z"/>
  <path fill="#FFFFFF" d="M60.5 70.7h3.3v3.3h-3.3z"/>
  <path fill="#FFFFFF" d="M68.6 67.8h3.3v3.3h-3.3z"/>
  <path fill="#FFFFFF" d="M68.6 70.7h3.3v3.3h-3.3z"/>
  <path fill="#FFFFFF" d="M68.6 73.6h3.3v3.3h-3.3z"/>
  <path fill="#FFFFFF" d="M71.5 73.6h3.3v3.3h-3.3z"/>
  <path fill="#FFFFFF" d="M74.4 73.6h3.3v3.3h-3.3z"/>
  <path fill="#FFFFFF" d="M74.4 70.7h3.3v3.3h-3.3z"/>
  <path fill="#FFFFFF" d="M74.4 67.8h3.3v3.3h-3.3z"/>
  <path fill="#FFFFFF" d="M71.5 67.8h3.3v3.3h-3.3z"/>
  <path fill="#FFFFFF" d="M71.5 70.7h3.3v3.3h-3.3z"/>
  <path fill="#FFFFFF" d="M79.7 67.8h3.3v3.3h-3.3z"/>
  <path fill="#FFFFFF" d="M79.7 70.7h3.3v3.3h-3.3z"/>
  <path fill="#FFFFFF" d="M79.7 73.6h3.3v3.3h-3.3z"/>
  <path fill="#FFFFFF" d="M82.6 73.6h3.3v3.3h-3.3z"/>
  <path fill="#FFFFFF" d="M85.5 73.6h3.3v3.3h-3.3z"/>
  <path fill="#FFFFFF" d="M85.5 70.7h3.3v3.3h-3.3z"/>
  <path fill="#FFFFFF" d="M85.5 67.8h3.3v3.3h-3.3z"/>
  <path fill="#FFFFFF" d="M82.6 67.8h3.3v3.3h-3.3z"/>
  <path fill="#FFFFFF" d="M82.6 70.7h3.3v3.3h-3.3z"/>
  <path fill="#3A4D54" d="M45.3 47.2h-19.6v3.1h19.6z"/>
  <path fill="#3A4D54" d="M48.4 50.3v-3.1h-3.1z"/>
  <path fill="#3A4D54" d="M36.6 41.1h-10.9v3.1h10.9z"/>
  <path fill="#3A4D54" d="M39.7 44.2v-3.1h-3.1z"/>
  <path fill="#3A4D54" d="M42.6 47.2h-3.1v3.1h3.1z"/>
  <path fill="#3A4D54" d="M36.6 47.2h-11v3.1h11z"/>
  <path fill="#3A4D54" d="M25.6 41.1h-3.1v3.1h3.1z"/>
  <path fill="#3A4D54" d="M25.6 44.2h-3.1v3h3.1z"/>
  <path fill="#3A4D54" d="M25.6 47.2h-3.1v3.1h3.1z"/>
  <path fill="#3A4D54" d="M25.6 50.3h-3.1v3.1h3.1z"/>
  <path fill="#3A4D54" d="M25.6 53.4h-3.1v3.1h3.1z"/>
  <path fill="#3A4D54" d="M22.5 56.5h-3v3h3z"/>
  <path fill="#3A4D54" d="M56.3 50.3h-7.9v3.1h7.9z"/>
  <path fill="#3A4D54" d="M59.4 47.2h-11v3.1h11z"/>
  <path fill="#3A4D54" d="M59.4 44.2h-11v3h11z"/>
  <path fill="#3A4D54" d="M59.4 41.1h-11v3.1h11z"/>
  <path fill="#3A4D54" d="M59.4 38h-11v3.1h11z"/>
  <path fill="#3A4D54" d="M56.3 35h-7.9v3h7.9z"/>
  <path fill="#3A4D54" d="M65 35.1h-8.6v2.9h8.6z"/>
  <path fill="#3A4D54" d="M68.1 38h-11v3.1h11z"/>
  <path fill="#3A4D54" d="M68.1 41.1h-11v3.1h11z"/>
  <path fill="#3A4D54" d="M68.1 44.2h-11v3h11z"/>
  <path fill="#3A4D54" d="M68.1 47.2h-11v3.1h11z"/>
  <path fill="#3A4D54" d="M65 50.3h-7.9v3.1h7.9z"/>
  <path fill="#3A4D54" d="M73.6 50.3h-8.6v3.1h8.6z"/>
  <path fill="#3A4D54" d="M76.7 47.2h-11v3.1h11z"/>
  <path fill="#3A4D54" d="M76.7 44.2h-11v3h11z"/>
  <path fill="#3A4D54" d="M76.7 41.1h-11v3.1h11z"/>
  <path fill="#3A4D54" d="M76.7 38h-11v3.1h11z"/>
  <path fill="#3A4D54" d="M73.6 35h-8.6v3h8.6z"/>
  <path fill="#3A4D54" d="M82.2 35.1h-8.6v2.9h8.6z"/>
  <path fill="#3A4D54" d="M85.3 38h-11v3.1h11z"/>
  <path fill="#3A4D54" d="M85.3 41.1h-11v3.1h11z"/>
  <path fill="#3A4D54" d="M85.3 44.2h-11v3h11z"/>
  <path fill="#3A4D54" d="M85.3 47.2h-11v3.1h11z"/>
  <path fill="#3A4D54" d="M82.2 50.3h-8.6v3.1h8.6z"/>
  <path fill="#3A4D54" d="M45.3 59.5h-3.1v3.1h3.1z"/>
  <path fill="#3A4D54" d="M48.4 56.5v-3.1h-3.1z"/>
  <path fill="#3A4D54" d="M48.4 53.4h-3.1v3.1h3.1z"/>
  <path fill="#3A4D54" d="M45.3 56.5h-3.1v3h3.1z"/>
  <path fill="#3A4D54" d="M42.2 59.5h-3v3.1h3z"/>
  <path fill="#3A4D54" d="M39.2 56.5h-3.1v3h3.1z"/>
  <path fill="#3A4D54" d="M36.1 59.5h-3v3.1h3z"/>
  <path fill="#3A4D54" d="M33.1 56.5h-3.1v3h3.1z"/>
  <path fill="#3A4D54" d="M30 59.5h-3v3.1h3z"/>
  <path fill="#3A4D54" d="M27 56.5h-3v3h3z"/>
  <path fill="#3A4D54" d="M22.5 56.5h-3.1v3h3.1z"/>
  <path fill="#3A4D54" d="M22.5 53.4h-3.1v3.1h3.1z"/>
  <path fill="#3A4D54" d="M19.4 56.5h-3v3h3z"/>
  <path fill="#3A4D54" d="M19.4 53.4h-3v3.1h3z"/>
  <path fill="#3A4D54" d="M19.4 50.3h-3v3.1h3z"/>
  <path fill="#3A4D54" d="M22.5 50.3h-3.1v3.1h3.1z"/>
  <path fill="#3A4D54" d="M19.4 47.2h-3v3.1h3z"/>
  <path fill="#3A4D54" d="M22.5 47.2h-3.1v3.1h3.1z"/>
  <path fill="#3A4D54" d="M19.4 44.2h-3v3h3z"/>
  <path fill="#3A4D54" d="M22.5 44.2h-3.1v3h3.1z"/>
  <path fill="#3A4D54" d="M22.5 41.1h-3.1v3.1h3.1z"/>
  <path fill="#3A4D54" d="M22.5 38h-3.1v3.1h3.1z"/>
  <path fill="#3A4D54" d="M99.9 56.5h-3v3h3z"/>
  <path fill="#3A4D54" d="M99.9 53.4h-3v3.1h3z"/>
  <path fill="#3A4D54" d="M96.9 56.5h-3.1v3h3.1z"/>
  <path fill="#3A4D54" d="M96.9 53.4h-3.1v3.1h3.1z"/>
  <path fill="#3A4D54" d="M96.9 50.3h-3.1v3.1h3.1z"/>
  <path fill="#3A4D54" d="M99.9 50.3h-3v3.1h3z"/>
  <path fill="#3A4D54" d="M96.9 47.2h-3.1v3.1h3.1z"/>
  <path fill="#3A4D54" d="M99.9 47.2h-3v3.1h3z"/>
  <path fill="#3A4D54" d="M96.9 44.2h-3.1v3h3.1z"/>
  <path fill="#3A4D54" d="M99.9 44.2h-3v3h3z"/>
  <path fill="#3A4D54" d="M99.9 41.1h-3v3.1h3z"/>
  <path fill="#3A4D54" d="M99.9 38h-3v3.1h3z"/>
  <path fill="#3A4D54" d="M93.8 56.5h-3v3h3z"/>
  <path fill="#3A4D54" d="M93.8 53.4h-3v3.1h3z"/>
  <path fill="#3A4D54" d="M93.8 50.3h-3v3.1h3z"/>
  <path fill="#3A4D54" d="M93.8 47.2h-3v3.1h3z"/>
  <path fill="#3A4D54" d="M93.8 44.2h-3v3h3z"/>
  <path fill="#3A4D54" d="M93.8 41.1h-3v3.1h3z"/>
  <path fill="#3A4D54" d="M93.8 38h-3v3.1h3z"/>
  <path fill="#3A4D54" d="M90.8 59.5h-3.1v3.1h3.1z"/>
  <path fill="#3A4D54" d="M87.7 56.5h-3v3h3z"/>
  <path fill="#3A4D54" d="M84.7 59.5h-3.1v3.1h3.1z"/>
  <path fill="#3A4D54" d="M81.6 56.5h-3v3h3z"/>
  <path fill="#3A4D54" d="M78.6 59.5h-3.1v3.1h3.1z"/>
  <path fill="#3A4D54" d="M75.5 56.5h-3v3h3z"/>
  <path fill="#3A4D54" d="M72.5 59.5h-3.1v3.1h3.1z"/>
  <path fill="#3A4D54" d="M69.4 56.5h-3v3h3z"/>
  <path fill="#3A4D54" d="M66.4 59.5h-3.1v3.1h3.1z"/>
  <path fill="#3A4D54" d="M63.3 56.5h-3v3h3z"/>
  <path fill="#3A4D54" d="M60.2 59.5h-3v3.1h3z"/>
  <path fill="#3A4D54" d="M57.2 56.5h-3.1v3h3.1z"/>
  <path fill="#3A4D54" d="M54.1 59.5h-3v3.1h3z"/>
  <path fill="#3A4D54" d="M51.1 56.5h-3.1v3h3.1z"/>
  <path fill="#3A4D54" d="M90.8 56.5h-3.1v3h3.1z"/>
  <path fill="#3A4D54" d="M90.8 53.4h-3.1v3.1h3.1z"/>
  <path fill="#3A4D54" d="M93.8 35h-3v3h3z"/>
  <path fill="#3A4D54" d="M87.7 35h-3v3h3z"/>
  <path fill="#3A4D54" d="M90.8 38h-3.1v3.1h3.1z"/>
  <path fill="#3A4D54" d="M96.9 35h-3.1v3h3.1z"/>
  <path fill="#3A4D54" d="M19.4 41.1h-3v3.1h3z"/>
  <path fill="#3A4D54" d="M19.4 35h-3v3h3z"/>
  <path fill="#3A4D54" d="M16.3 38h-3v3.1h3z"/>
  <path fill="#3A4D54" d="M22.5 35h-3.1v3h3.1z"/>
  <path fill="#3A4D54" d="M85.3 63.9h-11v3.1h11z"/>
  <path fill="#3A4D54" d="M85.3 67h-11v3.1h11z"/>
  <path fill="#3A4D54" d="M85.3 70.1h-11v3h11z"/>
  <path fill="#3A4D54" d="M85.3 73.1h-11v3.1h11z"/>
  <path fill="#3A4D54" d="M93.8 63.9h-8.5v3.1h8.5z"/>
  <path fill="#3A4D54" d="M99.9 63.9h-6.1v3.1h6.1z"/>
  <path fill="#3A4D54" d="M99.9 67h-6.1v3.1h6.1z"/>
  <path fill="#3A4D54" d="M99.9 70.1h-6.1v3h6.1z"/>
  <path fill="#3A4D54" d="M99.9 73.1h-6.1v3.1h6.1z"/>
  <path fill="#3A4D54" d="M93.8 76.2h-19.4v3h19.4z"/>
  <path fill="#3A4D54" d="M74.4 63.9h-11v3.1h11z"/>
  <path fill="#3A4D54" d="M74.4 67h-11v3.1h11z"/>
  <path fill="#3A4D54" d="M74.4 70.1h-11v3h11z"/>
  <path fill="#3A4D54" d="M74.4 73.1h-11v3.1h11z"/>
  <path fill="#3A4D54" d="M63.3 63.9h-11v3.1h11z"/>
  <path fill="#3A4D54" d="M63.3 67h-11v3.1h11z"/>
  <path fill="#3A4D54" d="M63.3 70.1h-11v3h11z"/>
  <path fill="#3A4D54" d="M63.3 73.1h-11v3.1h11z"/>
  <path fill="#3A4D54" d="M74.4 76.2h-22.1v3h22.1z"/>
  <path fill="#3A4D54" d="M52.3 63.9h-11v3.1h11z"/>
  <path fill="#3A4D54" d="M52.3 67h-11v3.1h11z"/>
  <path fill="#3A4D54" d="M52.3 70.1h-11v3h11z"/>
  <path fill="#3A4D54" d="M52.3 73.1h-11v3.1h11z"/>
  <path fill="#3A4D54" d="M41.3 63.9h-11v3.1h11z"/>
  <path fill="#3A4D54" d="M41.3 67h-11v3.1h11z"/>
  <path fill="#3A4D54" d="M41.3 70.1h-11v3h11z"/>
  <path fill="#3A4D54" d="M41.3 73.1h-11v3.1h11z"/>
  <path fill="#3A4D54" d="M52.3 76.2h-22v3h22z"/>
  <path fill="#3A4D54" d="M30.3 63.9h-11v3.1h11z"/>
  <path fill="#3A4D54" d="M30.3 67h-11v3.1h11z"/>
  <path fill="#3A4D54" d="M30.3 70.1h-11v3h11z"/>
  <path fill="#3A4D54" d="M30.3 73.1h-11v3.1h11z"/>
  <path fill="#3A4D54" d="M19.3 76.2h-3v3h3z"/>
  <path fill="#3A4D54" d="M19.3 63.9h-3v3.1h3z"/>
  <path fill="#3A4D54" d="M19.3 67h-3v3.1h3z"/>
  <path fill="#3A4D54" d="M19.3 70.1h-3v3h3z"/>
  <path fill="#3A4D54" d="M19.3 73.1h-3v3.1h3z"/>
  <path fill="#3A4D54" d="M48.4 26.7h-27v-3h27z"/>
  <path fill="#3A4D54" d="M21.4 26.7h-3v-3h3z"/>
  <path fill="#3A4D54" d="M19.4 23.7h-3v-3.1h3z"/>
  <path fill="#3A4D54" d="M16.3 23.7h-3v-3.1h3z"/>
  <path fill="#3A4D54" d="M19.4 20.6h-3v-3.1h3z"/>
  <path fill="#3A4D54" d="M16.3 20.6h-3v-3.1h3z"/>
  <path fill="#3A4D54" d="M13.3 20.6h-3v-3.1h3z"/>
  <path fill="#3A4D54" d="M16.3 17.5h-3v-3.1h3z"/>
  <path fill="#3A4D54" d="M13.3 17.5h-3v-3.1h3z"/>
  <path fill="#3A4D54" d="M10.3 17.5h-3.1v-3.1h3.1z"/>
  <path fill="#3A4D54" d="M13.3 14.4h-3v-3h3z"/>
  <path fill="#3A4D54" d="M10.3 14.4h-3.1v-3h3.1z"/>
  <path fill="#3A4D54" d="M7.2 14.4h-3v-3h3z"/>
  <path fill="#3A4D54" d="M10.3 11.4h-3.1v-3.1h3.1z"/>
  <path fill="#3A4D54" d="M7.2 11.4h-3v-3.1h3z"/>
  <path fill="#3A4D54" d="M7.2 8.3h-3v-3.1h3z"/>
  <path fill="#3A4D54" d="M48.4 32.9h-18.4v-3.1h18.4z"/>
  <path fill="#3A4D54" d="M18.4 23.7h-3.1v3h3.1z"/>
  <path fill="#3A4D54" d="M15.3 26.7h-3v-3h3z"/>
  <path fill="#3A4D54" d="M12.3 26.7h-3.1v-3h3.1z"/>
  <path fill="#3A4D54" d="M9.2 26.7h-3v-3h3z"/>
  <path fill="#3A4D54" d="M15.3 23.7h-3v-3.1h3z"/>
  <path fill="#3A4D54" d="M12.3 23.7h-3.1v-3.1h3.1z"/>
  <path fill="#3A4D54" d="M9.2 23.7h-3v-3.1h3z"/>
  <path fill="#3A4D54" d="M12.3 20.6h-3.1v-3.1h3.1z"/>
  <path fill="#3A4D54" d="M9.2 20.6h-3v-3.1h3z"/>
  <path fill="#3A4D54" d="M9.2 17.5h-3v-3.1h3z"/>
  <path fill="#3A4D54" d="M30 29.8h-3v3.1h3z"/>
  <path fill="#3A4D54" d="M27 32.9h-3.1v3h3.1z"/>
  <path fill="#3A4D54" d="M23.9 32.9h-3v3h3z"/>
  <path fill="#3A4D54" d="M20.9 32.9h-3.1v3h3.1z"/>
  <path fill="#3A4D54" d="M30 32.9h-3v3h3z"/>
  <path fill="#3A4D54" d="M33.1 32.9h-3.1v3h3.1z"/>
  <path fill="#3A4D54" d="M36.1 32.9h-3v3h3z"/>
  <path fill="#3A4D54" d="M39.2 32.9h-3.1v3h3.1z"/>
  <path fill="#3A4D54" d="M42.2 32.9h-3v3h3z"/>
  <path fill="#3A4D54" d="M45.3 32.9h-3.1v3h3.1z"/>
  <path fill="#3A4D54" d="M48.4 32.9h-3.1v3h3.1z"/>
  <path fill="#3A4D54" d="M51.4 32.9h-3v3h3z"/>
  <path fill="#3A4D54" d="M54.5 32.9h-3.1v3h3.1z"/>
  <path fill="#3A4D54" d="M57.5 32.9h-3v3h3z"/>
  <path fill="#3A4D54" d="M60.6 32.9h-3.1v3h3.1z"/>
  <path fill="#3A4D54" d="M63.6 32.9h-3v3h3z"/>
  <path fill="#3A4D54" d="M66.7 32.9h-3.1v3h3.1z"/>
  <path fill="#3A4D54" d="M69.7 32.9h-3v3h3z"/>
  <path fill="#3A4D54" d="M72.8 32.9h-3.1v3h3.1z"/>
  <path fill="#3A4D54" d="M75.8 32.9h-3v3h3z"/>
  <path fill="#3A4D54" d="M78.9 32.9h-3.1v3h3.1z"/>
  <path fill="#3A4D54" d="M81.9 32.9h-3v3h3z"/>
  <path fill="#3A4D54" d="M85 32.9h-3.1v3h3.1z"/>
  <path fill="#3A4D54" d="M88 32.9h-3v3h3z"/>
  <path fill="#3A4D54" d="M91.1 32.9h-3.1v3h3.1z"/>
  <path fill="#3A4D54" d="M94.1 32.9h-3v3h3z"/>
  <path fill="#3A4D54" d="M97.2 32.9h-3.1v3h3.1z"/>
  <path fill="#3A4D54" d="M100.2 32.9h-3v3h3z"/>
  <path fill="#3A4D54" d="M103.3 32.9h-3.1v3h3.1z"/>
  <path fill="#3A4D54" d="M106.3 32.9h-3v3h3z"/>
  <path fill="#3A4D54" d="M109.4 32.9h-3.1v3h3.1z"/>
  <path fill="#3A4D54" d="M112.4 32.9h-3v3h3z"/>
  <path fill="#3A4D54" d="M100.2 29.8h-3v3.1h3z"/>
  <path fill="#3A4D54" d="M103.3 29.8h-3.1v3.1h3.1z"/>
  <path fill="#3A4D54" d="M106.3 29.8h-3v3.1h3z"/>
  <path fill="#3A4D54" d="M109.4 29.8h-3.1v3.1h3.1z"/>
  <path fill="#3A4D54" d="M112.4 29.8h-3v3.1h3z"/>
  <path fill="#3A4D54" d="M115.5 29.8h-3.1v3.1h3.1z"/>
  <path fill="#3A4D54" d="M103.3 26.7h-3.1v3.1h3.1z"/>
  <path fill="#3A4D54" d="M106.3 26.7h-3v3.1h3z"/>
  <path fill="#3A4D54" d="M109.4 26.7h-3.1v3.1h3.1z"/>
  <path fill="#3A4D54" d="M112.4 26.7h-3v3.1h3z"/>
  <path fill="#3A4D54" d="M115.5 26.7h-3.1v3.1h3.1z"/>
  <path fill="#3A4D54" d="M118.5 26.7h-3v3.1h3z"/>
  <path fill="#3A4D54" d="M106.3 23.7h-3v3h3z"/>
  <path fill="#3A4D54" d="M109.4 23.7h-3.1v3h3.1z"/>
  <path fill="#3A4D54" d="M112.4 23.7h-3v3h3z"/>
  <path fill="#3A4D54" d="M115.5 23.7h-3.1v3h3.1z"/>
  <path fill="#3A4D54" d="M118.5 23.7h-3v3h3z"/>
  <path fill="#3A4D54" d="M121.6 23.7h-3.1v3h3.1z"/>
  <path fill="#3A4D54" d="M109.4 20.6h-3.1v3.1h3.1z"/>
  <path fill="#3A4D54" d="M112.4 20.6h-3v3.1h3z"/>
  <path fill="#3A4D54" d="M115.5 20.6h-3.1v3.1h3.1z"/>
  <path fill="#3A4D54" d="M118.5 20.6h-3v3.1h3z"/>
  <path fill="#3A4D54" d="M121.6 20.6h-3.1v3.1h3.1z"/>
  <path fill="#3A4D54" d="M112.4 17.5h-3v3.1h3z"/>
  <path fill="#3A4D54" d="M115.5 17.5h-3.1v3.1h3.1z"/>
  <path fill="#3A4D54" d="M118.5 17.5h-3v3.1h3z"/>
  <path fill="#3A4D54" d="M121.6 17.5h-3.1v3.1h3.1z"/>
  <path fill="#3A4D54" d="M115.5 14.4h-3.1v3.1h3.1z"/>
  <path fill="#3A4D54" d="M118.5 14.4h-3v3.1h3z"/>
  <path fill="#3A4D54" d="M121.6 14.4h-3.1v3.1h3.1z"/>
  <path fill="#3A4D54" d="M118.5 11.4h-3v3h3z"/>
  <path fill="#3A4D54" d="M121.6 11.4h-3.1v3h3.1z"/>
  <path fill="#3A4D54" d="M121.6 8.3h-3.1v3.1h3.1z"/>
  <path fill="#3A4D54" d="M115.5 32.9h-3.1v3h3.1z"/>
  <path fill="#3A4D54" d="M118.5 32.9h-3v3h3z"/>
  <path fill="#3A4D54" d="M121.6 32.9h-3.1v3h3.1z"/>
  <path fill="#3A4D54" d="M17.9 32.9h-3.1v3h3.1z"/>
  <path fill="#3A4D54" d="M14.8 32.9h-3v3h3z"/>
  <path fill="#3A4D54" d="M11.8 32.9h-3.1v3h3.1z"/>
  <path fill="#3A4D54" d="M8.7 32.9h-3v3h3z"/>
  <path fill="#3A4D54" d="M17.9 29.8h-3.1v3.1h3.1z"/>
  <path fill="#3A4D54" d="M14.8 29.8h-3v3.1h3z"/>
  <path fill="#3A4D54" d="M11.8 29.8h-3.1v3.1h3.1z"/>
  <path fill="#3A4D54" d="M8.7 29.8h-3v3.1h3z"/>
  <path fill="#3A4D54" d="M5.7 29.8h-3.1v3.1h3.1z"/>
  <path fill="#3A4D54" d="M14.8 26.7h-3v3.1h3z"/>
  <path fill="#3A4D54" d="M11.8 26.7h-3.1v3.1h3.1z"/>
  <path fill="#3A4D54" d="M8.7 26.7h-3v3.1h3z"/>
  <path fill="#3A4D54" d="M5.7 26.7h-3.1v3.1h3.1z"/>
  <path fill="#3A4D54" d="M2.6 26.7h-3v3.1h3z"/>
  <path fill="#3A4D54" d="M5.7 32.9h-3.1v3h3.1z"/>
  <path fill="#3A4D54" d="M2.6 32.9h-3v3h3z"/>
</svg>