<svg xmlns="http://www.w3.org/2000/svg" viewBox="0 0 128 128">
  <g fill="#326ce5">
    <path d="M64 0a12.33 12.33 0 00-3.6.6c-1.2.4-2.3 1-3.4 1.8L29.2 20.1c-1 .7-2 1.6-2.8 2.6-.8 1-1.5 2.2-2 3.4L8.5 64c-.5 1.2-.8 2.5-1 3.8-.2 1.3-.2 2.6 0 3.9l7.7 35.3c.3 1.3.8 2.5 1.5 3.6.7 1.1 1.6 2.1 2.6 2.9l27.4 20c1.1.8 2.2 1.4 3.5 1.8 1.2.4 2.5.6 3.8.6h34c1.3 0 2.6-.2 3.8-.6 1.2-.4 2.4-1 3.4-1.8l27.3-20c1-.8 1.9-1.7 2.6-2.9.7-1.1 1.2-2.3 1.5-3.6l7.7-35.3c.2-1.3.2-2.6 0-3.9-.2-1.3-.5-2.6-1-3.8L109.2 26c-.5-1.2-1.2-2.4-2-3.4-.8-1-1.7-1.9-2.8-2.6L76.9 2.4c-1-.7-2.2-1.3-3.4-1.7-1.2-.4-2.3-.6-3.5-.6zm0 8c.7 0 1.4 0 2 .2.7.2 1.3.5 1.9 1l27.5 17.7c.6.4 1.1 1 1.5 1.6.4.6.8 1.3 1 2L114 64c.3.7.5 1.4.5 2.2.1.7.1 1.5 0 2.2L107 104c-.2.7-.4 1.4-.8 2-.4.6-.8 1.2-1.4 1.6L77.6 118c-.6.4-1.2.8-1.9 1-.7.2-1.3.3-2 .3h-9.9c-.5 0-1 0-1.5-.3H60c-.7 0-1.4-.1-2-.3-.7-.2-1.3-.6-1.9-1L28.6 98.2c-.6-.4-1.1-1-1.5-1.6-.4-.6-.6-1.3-.8-2L18.7 60c-.1-.7-.1-1.5 0-2.2.1-.7.2-1.5.5-2.2L35.3 22c.3-.7.6-1.4 1-2 .4-.6 1-1.2 1.5-1.6L65.4 9.2c.6-.5 1.2-.8 1.9-1 .6-.2 1.3-.3 2-.3l-5.6.1z"/>
    <path d="M64 40a24 24 0 100 48 24 24 0 000-48zm0 6.8a17.3 17.3 0 110 34.6 17.3 17.3 0 010-34.6z"/>
    <path d="M63.7 25.8c-2.2 0-4 1.9-4 4.1v10.2c0 2.3 1.8 4.1 4 4.1 2.1 0 4-1.8 4-4.1V30c0-2.2-1.9-4.1-4-4.1zM82.2 30c-2.3 0-4.1 1.8-4.1 4 0 .7.2 1.4.5 2l7.2 7.4c1.6 1.6 4.2 1.6 5.8 0 1.5-1.6 1.5-4.1 0-5.7l-7.3-7.4c-.6-.3-1.3-.5-2-.5M45.6 30c-.8 0-1.5.1-2 .5L36 38c-1.5 1.5-1.5 4.1 0 5.6a4.1 4.1 0 005.8 0l7.4-7.4c.3-.6.5-1.3.5-2 0-2.2-1.8-4-4.1-4zM63.7 83.8c-2.2 0-4 1.9-4 4.1v10.2c0 2.3 1.8 4.1 4 4.1 2.1 0 4-1.8 4-4.1V88c0-2.2-1.9-4.1-4-4.1zM45.6 88.1c-2.3 0-4.1 1.8-4.1 4 0 .7.2 1.4.5 2l7.3 7.5c1.5 1.5 4.1 1.5 5.7 0 1.6-1.6 1.6-4.2 0-5.8l-7.3-7.4c-.6-.3-1.3-.5-2-.5M82.2 88.1c-.8 0-1.5.1-2 .5l-7.4 7.4c-1.6 1.6-1.6 4.2 0 5.8 1.5 1.5 4.1 1.5 5.7 0l7.4-7.5c.3-.6.5-1.3.5-2 0-2.2-1.8-4-4.1-4zM25.8 63.7c-2.2 0-4 1.9-4 4.1 0 2.2 1.8 4 4 4h10.3c2.2 0 4-1.8 4-4 0-2.2-1.8-4.1-4-4.1H25.8zM92 63.7c-2.2 0-4 1.9-4 4.1 0 2.2 1.8 4 4 4h10.2c2.3 0 4.1-1.8 4.1-4 0-2.2-1.8-4.1-4.1-4.1H92z"/>
  </g>
</svg>